<svg xmlns="http://www.w3.org/2000/svg"
	xmlns:xlink="http://www.w3.org/1999/xlink" style="display:none;">
	<symbol id="logo" viewbox="0 0 69 71">
		<defs>
			<style>
			.cls-1, .cls-2 {
				fill: none;
				stroke-width: 2px;
			}

			.cls-1 {
				stroke: #fff;
			}

			.cls-1, .cls-2, .cls-3 {
				fill-rule: evenodd;
			}

			.cls-2 {
				stroke: #fff;
			}

			.cls-3, .cls-4 {
				fill: #fff;
			}
		</style>
	</defs>
	<path class="cls-1" d="M1358.67,708.857l-28.81-55-28.81,55h57.62Z" transform="translate(-1295 -640)"/>
	<path class="cls-2" d="M1329.5,641a33.216,33.216,0,1,1-33.5,33.214A33.359,33.359,0,0,1,1329.5,641Z" transform="translate(-1295 -640)"/>
	<path id="Ellipse_1_copy_8" data-name="Ellipse 1 copy 8" class="cls-3" d="M1329.86,703.857a3.572,3.572,0,1,1-3.6,3.572A3.585,3.585,0,0,1,1329.86,703.857Z" transform="translate(-1295 -640)"/>
	<circle id="Ellipse_1_copy_9" data-name="Ellipse 1 copy 9" class="cls-4" cx="61.515" cy="67.422" r="3.605"/>
	<path id="Ellipse_1_copy_11" data-name="Ellipse 1 copy 11" class="cls-3" d="M1301.04,703.857a3.572,3.572,0,1,1-3.6,3.572A3.593,3.593,0,0,1,1301.04,703.857Z" transform="translate(-1295 -640)"/>
</symbol>

<symbol id="scroll" viewbox="0 0 24 42">
	<path fill-rule="evenodd"  fill="#fff"
	d="M11.497,37.001 C5.156,37.001 -0.001,31.837 -0.001,25.490 L-0.001,11.416 C-0.001,5.440 4.612,0.468 10.543,-0.007 L12.451,-0.007 C18.383,0.472 22.996,5.444 22.996,11.416 L22.996,25.490 C22.996,31.837 17.838,37.001 11.497,37.001 ZM21.088,11.416 C21.088,6.121 16.785,1.815 11.497,1.815 C6.208,1.815 1.906,6.121 1.906,11.416 L1.906,25.490 C1.906,30.785 6.209,35.091 11.497,35.091 C16.785,35.091 21.088,30.785 21.088,25.490 L21.088,11.416 ZM11.497,13.075 C10.583,13.075 9.840,12.331 9.840,11.416 C9.840,10.501 10.583,9.757 11.497,9.757 C12.410,9.757 13.154,10.501 13.154,11.416 C13.154,12.331 12.411,13.075 11.497,13.075 Z"/>
</symbol>

<symbol id="pen" viewbox="0 0 82 84">
	<path fill-rule="evenodd"  fill="#3c3c3c"
	d="M77.956,-0.011 L66.032,-0.011 C64.907,-0.011 64.007,0.889 64.007,2.014 L64.007,6.177 L15.860,6.177 L15.860,2.014 C15.860,0.889 14.961,-0.011 13.836,-0.011 L2.024,-0.011 C0.899,-0.011 -0.001,0.889 -0.001,2.014 L-0.001,14.277 C-0.001,15.402 0.899,16.302 2.024,16.302 L13.948,16.302 C15.073,16.302 15.973,15.402 15.973,14.277 L15.973,10.114 L38.134,10.114 C37.909,15.065 25.872,38.354 18.223,52.079 C17.773,52.867 17.998,53.879 18.673,54.554 C25.535,60.404 27.222,66.143 27.672,69.067 L25.085,69.067 C23.960,69.067 23.060,69.967 23.060,71.093 L23.060,80.993 C23.060,82.118 23.960,83.018 25.085,83.018 L55.008,83.018 C56.133,83.018 57.033,82.118 57.033,80.993 L57.033,71.093 C57.033,69.967 56.133,69.067 55.008,69.067 L52.420,69.067 C52.870,66.143 54.558,60.404 61.420,54.554 C62.095,53.992 62.320,52.867 61.870,52.079 C54.220,38.354 42.184,14.952 41.959,10.114 L64.007,10.114 L64.007,14.277 C64.007,15.402 64.907,16.302 66.032,16.302 L77.956,16.302 C79.081,16.302 79.981,15.402 79.981,14.277 L79.981,2.014 C79.981,0.889 79.081,-0.011 77.956,-0.011 ZM11.923,12.252 L3.936,12.252 L3.936,3.926 L11.923,3.926 L11.923,12.252 ZM40.046,45.216 C41.509,45.216 42.634,46.341 42.634,47.804 C42.634,49.267 41.509,50.392 40.046,50.392 C38.584,50.392 37.459,49.267 37.459,47.804 C37.459,46.454 38.696,45.216 40.046,45.216 ZM53.095,78.855 L27.110,78.855 L27.110,72.893 L29.810,72.893 L50.396,72.893 L53.095,72.893 L53.095,78.855 ZM48.483,68.955 L31.609,68.955 C31.159,65.692 29.472,59.167 22.385,52.529 C25.085,47.579 33.184,32.728 38.021,21.702 L38.021,41.616 C35.434,42.404 33.522,44.878 33.522,47.804 C33.522,51.404 36.447,54.329 40.046,54.329 C43.646,54.329 46.571,51.404 46.571,47.804 C46.571,44.878 44.658,42.516 42.071,41.616 L42.071,21.590 C47.021,32.616 55.008,47.466 57.707,52.529 C50.621,59.167 48.933,65.692 48.483,68.955 ZM76.044,12.252 L68.057,12.252 L68.057,8.539 C68.057,8.427 68.057,8.314 68.057,8.202 C68.057,8.089 68.057,7.977 68.057,7.864 L68.057,4.039 L76.044,4.039 L76.044,12.252 Z"/>
</symbol>

<symbol id="dev" viewbox="0 0 82 84">
	<path fill="#3c3c3c" fill-rule="evenodd" d="M76.921 75.997H2.078a2.09 2.09 0 0 1-2.08-2.098V2.093a2.09 2.09 0 0 1 2.08-2.099h74.843C78.069-.006 79 .933 79 2.093v71.806a2.088 2.088 0 0 1-2.079 2.098zM74.842 4.192H4.156v6.691h70.686V4.192zm0 10.888H4.156V71.8h70.686V15.08zM27.748 34.625a1.808 1.808 0 0 1 2.573 0 1.846 1.846 0 0 1 0 2.596l-4.364 4.407 4.374 4.415c.71.717.71 1.879 0 2.596a1.807 1.807 0 0 1-2.572-.001l-5.66-5.712a1.848 1.848 0 0 1 0-2.597l5.649-5.704zm12.004-1.778a1.82 1.82 0 0 1 2.212-1.325 1.839 1.839 0 0 1 1.314 2.234l-4.624 18.281a1.823 1.823 0 0 1-2.213 1.324 1.836 1.836 0 0 1-1.312-2.233l4.623-18.281zm8.914 1.777a1.807 1.807 0 0 1 2.572 0l5.66 5.713a1.841 1.841 0 0 1 0 2.596l-5.651 5.704a1.799 1.799 0 0 1-2.571.001 1.846 1.846 0 0 1 0-2.596l4.365-4.406-4.375-4.415a1.85 1.85 0 0 1 0-2.597zM9.181 6.069c.803 0 1.454.658 1.454 1.468a1.46 1.46 0 0 1-1.454 1.468 1.461 1.461 0 0 1-1.455-1.468c0-.81.651-1.468 1.455-1.468zm4.35.001a1.46 1.46 0 0 1 1.454 1.467 1.46 1.46 0 0 1-1.454 1.467 1.46 1.46 0 0 1-1.453-1.467c0-.81.651-1.467 1.453-1.467zm4.35-.001c.803 0 1.454.658 1.454 1.468a1.46 1.46 0 0 1-1.454 1.468 1.46 1.46 0 0 1-1.454-1.468c0-.81.651-1.468 1.454-1.468z"/>
</symbol>

<symbol id="list" viewbox="0 0 82 84">
	<path fill="#3c3c3c" fill-rule="evenodd" d="M76.888 91H2.081a2.078 2.078 0 0 1-2.092-2.079V13.483c0-1.143.931-2.078 2.092-2.078h20.467c.219-3.181 2.887-5.686 6.131-5.686h5.994C34.705 2.57 37.3.013 40.48.013c3.19 0 5.774 2.557 5.816 5.706h5.985c3.253 0 5.921 2.505 6.141 5.686h18.466c1.161 0 2.093.935 2.093 2.078v75.438A2.08 2.08 0 0 1 76.888 91zM54.259 11.842a1.97 1.97 0 0 0-1.977-1.965h-6.539c-1.998 0-3.63-1.62-3.63-3.606v-.478a1.627 1.627 0 1 0-3.254 0v.478c0 1.984-1.633 3.606-3.641 3.606h-6.539a1.969 1.969 0 0 0-1.968 1.965h.002v4.261h27.546v-4.261zm20.535 3.72H58.441v2.619a2.078 2.078 0 0 1-2.092 2.079H24.618a2.078 2.078 0 0 1-2.092-2.079v-2.619H4.173v71.281h70.621V15.562zM19.768 32.375l1.989 1.975 5.086-5.052a1.576 1.576 0 0 1 2.219 0 1.552 1.552 0 0 1 0 2.205l-6.195 6.154a1.574 1.574 0 0 1-2.22 0l-3.098-3.077a1.554 1.554 0 0 1 0-2.205 1.576 1.576 0 0 1 2.219 0zm0 13.34l1.989 1.974 5.086-5.051a1.576 1.576 0 0 1 2.219 0 1.55 1.55 0 0 1 0 2.205l-6.195 6.154a1.574 1.574 0 0 1-2.22 0l-3.098-3.077a1.554 1.554 0 0 1 0-2.205 1.576 1.576 0 0 1 2.219 0zm0 13.34l1.989 1.976 5.086-5.052a1.576 1.576 0 0 1 2.219 0 1.552 1.552 0 0 1 0 2.205l-6.195 6.155a1.577 1.577 0 0 1-2.22-.001l-3.098-3.077a1.555 1.555 0 0 1 0-2.206 1.578 1.578 0 0 1 2.219 0zm0 13.342l1.989 1.976 5.086-5.052a1.576 1.576 0 0 1 2.219 0 1.55 1.55 0 0 1 0 2.205l-6.195 6.154a1.579 1.579 0 0 1-2.22 0l-3.098-3.078a1.554 1.554 0 0 1 0-2.205 1.578 1.578 0 0 1 2.219 0zm15.869-40.478h18.674c.866 0 1.569.698 1.569 1.559s-.702 1.559-1.569 1.559H35.637a1.564 1.564 0 0 1-1.569-1.559c0-.861.703-1.559 1.569-1.559zm0 13.341h18.674c.866 0 1.569.698 1.569 1.559s-.702 1.559-1.569 1.559H35.637a1.564 1.564 0 0 1-1.569-1.559c0-.861.703-1.559 1.569-1.559zm0 13.34h18.674c.866 0 1.569.697 1.569 1.559 0 .861-.702 1.558-1.569 1.558H35.637a1.564 1.564 0 0 1-1.569-1.558c0-.862.703-1.559 1.569-1.559zm0 13.34h18.674c.866 0 1.569.698 1.569 1.559s-.702 1.559-1.569 1.559H35.637a1.564 1.564 0 0 1-1.569-1.559c0-.861.703-1.559 1.569-1.559zm4.848-61.8c1.11 0 2.009.894 2.009 1.997a2.002 2.002 0 0 1-2.009 1.996c-1.11 0-2.01-.894-2.01-1.996 0-1.103.9-1.997 2.01-1.997z"/>
</symbol>
</svg>